<?xml version="1.0" encoding="utf-8"?>
<!-- Generator: Adobe Illustrator 18.0.0, SVG Export Plug-In . SVG Version: 6.00 Build 0)  -->
<!DOCTYPE svg PUBLIC "-//W3C//DTD SVG 1.1//EN" "http://www.w3.org/Graphics/SVG/1.1/DTD/svg11.dtd">
<svg version="1.1" id="Layer_1" xmlns="http://www.w3.org/2000/svg" xmlns:xlink="http://www.w3.org/1999/xlink" x="0px" y="0px"
	 viewBox="0 0 512 512" enable-background="new 0 0 512 512" xml:space="preserve">
<g>
	<g>
		<g>
			<path d="M390.4,489.4c-44.1,0-88.3,0-132.4,0c-45.5,0-90.9,0-136.4,0c-13.1,0-22.9-10.8-22.9-23.6c0-4,0-8,0-12
				c0-19.7,0-39.4,0-59.1c0-62.8,0-125.5,0-188.3c0-49.4,0-98.8,0-148.2c0-4,0-8,0-12c0-12.8,9.8-23.6,22.9-23.6
				c14.7,0,29.5,0,44.2,0c61.1,0,122.2,0,183.3,0c13.8,0,27.5,0,41.3,0c13.4,0,22.8,11.1,22.8,24c0,4.4,0,8.7,0,13.1
				c0,50.2,0,100.4,0,150.6c0,62.5,0,125,0,187.5c0,18.7,0,37.3,0,56c0,3.9,0,7.9,0,11.8C413.2,478.6,403.7,489.1,390.4,489.4
				c-9.7,0.2-9.7,15.2,0,15c20.7-0.5,37.8-17,37.8-38c0-3.3,0-6.5,0-9.8c0-18.6,0-37.2,0-55.8c0-62.2,0-124.4,0-186.6
				c0-51,0-101.9,0-152.9c0-4.7,0-9.5,0-14.2c0-13.5-5.7-25-16.5-33c-7.9-5.8-17.3-6.6-26.6-6.6c-8.2,0-16.4,0-24.6,0
				c-60.6,0-121.2,0-181.8,0c-18.4,0-36.8,0-55.2,0c-15.1,0-28.9,7.3-35.8,21c-3.4,6.7-3.9,13.8-3.9,21.2c0,43.3,0,86.6,0,129.8
				c0,64.1,0,128.2,0,192.3c0,23.2,0,46.4,0,69.5c0,11-1.2,23,1,33.9c3.6,17.5,20.5,29,37.7,29c5.7,0,11.4,0,17.2,0
				c26.3,0,52.6,0,78.8,0c54.8,0,109.7,0,164.5,0c2.5,0,4.9,0,7.4,0C400.1,504.4,400.1,489.4,390.4,489.4z" fill="#038C65"/>
		</g>
	</g>
	<g>
		<g>
			<path d="M91.3,313.9c39.3,0,78.6,0,117.9,0c59.9,0,119.9,0,179.8,0c10.6,0,21.2,0,31.7,0c9.7,0,9.7-15,0-15
				c-39.3,0-78.6,0-117.9,0c-59.9,0-119.9,0-179.8,0c-10.6,0-21.2,0-31.7,0C81.6,298.9,81.6,313.9,91.3,313.9L91.3,313.9z" fill="#038C65"/>
		</g>
	</g>
	<g>
		<g>
			<path d="M125,140.2c0,13.7,0,27.5,0,41.2c0,9.7,15,9.7,15,0c0-13.7,0-27.5,0-41.2C140,130.5,125,130.5,125,140.2L125,140.2z" fill="#038C65"/>
		</g>
	</g>
	<g>
		<g>
			<path d="M125,381.1c0,13.7,0,27.5,0,41.2c0,9.7,15,9.7,15,0c0-13.7,0-27.5,0-41.2C140,371.4,125,371.4,125,381.1L125,381.1z" fill="#038C65"/>
		</g>
	</g>
</g>
<g>
	<g>
		<g>
			<path d="M309,195.5c17,0,34,0,51,0c5.7,0,9.3-6.4,6.5-11.3c-8.5-15-17-30-25.5-45c-2.8-4.9-10.2-4.9-13,0c-8.5,15-17,30-25.5,45
				c-4.8,8.4,8.2,16,13,7.6c8.5-15,17-30,25.5-45c-4.3,0-8.6,0-13,0c8.5,15,17,30,25.5,45c2.2-3.8,4.3-7.5,6.5-11.3c-17,0-34,0-51,0
				C299.3,180.5,299.3,195.5,309,195.5z" fill="#038C65"/>
		</g>
	</g>
</g>
<g>
	<g>
		<path d="M281,117.5c-16.7,0-33.3,0-50,0c2.5,2.5,5,5,7.5,7.5c0-16.3,0-32.7,0-49c-2.5,2.5-5,5-7.5,7.5c16.7,0,33.3,0,50,0
			c-2.5-2.5-5-5-7.5-7.5c0,16.3,0,32.7,0,49c0,9.7,15,9.7,15,0c0-16.3,0-32.7,0-49c0-4.1-3.4-7.5-7.5-7.5c-16.7,0-33.3,0-50,0
			c-4.1,0-7.5,3.4-7.5,7.5c0,16.3,0,32.7,0,49c0,4.1,3.4,7.5,7.5,7.5c16.7,0,33.3,0,50,0C290.7,132.5,290.7,117.5,281,117.5z" fill="#038C65"/>
	</g>
</g>
<g>
	<g>
		<path d="M206.5,235c-9.1,0-17.2-6.1-18-15.6c-0.8-10,7.2-18.1,17-18.4c9.1-0.3,17.2,6.3,18,15.6
			C224.3,226.6,216.3,234.7,206.5,235c-9.7,0.3-9.7,15.3,0,15c17.4-0.5,32-14.2,32-32c0-18.2-15.2-32-33-32c-17.4,0-32,14.6-32,32
			c0,18.2,15.2,32,33,32C216.2,250,216.2,235,206.5,235z" fill="#038C65"/>
	</g>
</g>
</svg>
